<?xml version="1.0" standalone="no"?>
<!DOCTYPE svg PUBLIC "-//W3C//DTD SVG 20010904//EN"
 "http://www.w3.org/TR/2001/REC-SVG-20010904/DTD/svg10.dtd">
<svg version="1.0" xmlns="http://www.w3.org/2000/svg"
 width="512.000000pt" height="512.000000pt" viewBox="0 0 512.000000 512.000000"
 preserveAspectRatio="xMidYMid meet">
<metadata>
Created by potrace 1.14, written by Peter Selinger 2001-2017
</metadata>
<g transform="translate(0.000000,512.000000) scale(0.100000,-0.100000)"
fill="#000000" stroke="none">
<path d="M1357 4964 c-1 -1 -23 -4 -48 -7 -128 -15 -226 -64 -325 -162 -129
-126 -169 -240 -173 -485 -1 -85 -4 -156 -6 -159 -2 -2 -72 -4 -155 -5 l-151
-2 -30 -30 c-58 -58 -42 -158 29 -185 15 -6 91 -11 170 -11 l142 -1 0 -373 0
-374 -141 0 c-110 0 -149 -4 -175 -16 -80 -38 -86 -149 -12 -194 29 -18 51
-20 181 -20 l147 0 0 -375 0 -375 -145 0 c-162 0 -193 -8 -220 -60 -19 -37
-19 -73 0 -110 26 -50 55 -58 215 -58 l145 0 3 -376 2 -376 -144 0 c-80 0
-156 -4 -170 -10 -32 -12 -66 -65 -66 -103 0 -35 24 -78 54 -98 15 -9 63 -14
169 -15 82 -1 150 -4 152 -6 1 -1 5 -82 7 -178 4 -148 8 -185 27 -240 63 -181
201 -314 386 -372 l70 -22 1430 0 c1145 0 1441 3 1485 13 152 36 312 159 377
291 72 145 67 -27 66 2090 0 1791 -1 1909 -17 1974 -55 209 -223 372 -431 417
-47 10 -356 13 -1453 13 -767 1 -1394 0 -1395 0z m2843 -249 c102 -42 175
-118 211 -220 21 -61 23 -3776 2 -3850 -31 -107 -108 -191 -215 -232 -39 -15
-167 -17 -1448 -18 -1523 -2 -1451 -4 -1547 52 -55 32 -100 84 -132 153 -23
51 -26 68 -29 218 -3 131 -1 162 9 163 8 0 77 1 154 2 152 2 180 11 203 63 22
47 15 90 -22 128 l-33 36 -157 0 -156 0 0 375 0 375 63 1 c34 0 97 0 141 0 94
0 139 16 160 58 30 58 15 119 -36 151 -29 18 -51 20 -180 20 l-148 0 0 375 0
375 149 0 c137 0 150 2 182 23 65 43 65 138 1 182 -35 24 -43 25 -184 25
l-148 0 0 373 0 373 158 2 157 1 33 36 c49 53 43 126 -16 170 -24 18 -43 20
-180 20 l-153 0 2 150 c1 94 6 167 15 196 32 107 133 205 240 231 41 11 340
13 1455 12 1339 0 1406 -1 1449 -19z"/>
<path d="M2698 3705 c-2 -2 -27 -5 -56 -9 -243 -29 -444 -252 -459 -510 -10
-166 43 -304 161 -421 116 -116 247 -169 405 -164 147 4 265 55 369 157 113
111 171 253 167 407 -1 44 -8 100 -14 125 -54 200 -228 364 -428 405 -35 7
-140 14 -145 10z m164 -254 c66 -28 129 -90 163 -158 24 -49 29 -71 29 -138 0
-66 -5 -90 -26 -135 -32 -69 -82 -122 -150 -157 -46 -24 -64 -28 -143 -28
-108 0 -163 22 -236 95 -122 122 -118 333 8 455 68 66 144 94 243 90 37 -2 85
-12 112 -24z"/>
<path d="M2727 2414 c-1 -1 -38 -4 -82 -7 -277 -20 -552 -215 -672 -477 -28
-63 -51 -123 -57 -154 -35 -170 -39 -255 -15 -295 38 -62 3 -60 830 -59 429 0
764 4 778 10 30 11 60 44 68 75 10 43 -6 186 -31 278 -86 307 -313 529 -616
603 -69 17 -194 33 -203 26z m148 -245 c143 -31 290 -137 374 -268 37 -58 91
-199 91 -237 0 -12 -84 -14 -610 -14 l-610 0 6 28 c11 45 46 145 62 177 44 86
150 198 235 248 56 33 160 68 222 74 28 3 51 6 53 8 6 5 131 -6 177 -16z"/>
</g>
</svg>
